# This file uses centimeters as units for non-parametric coordinates.

mtllib Bush4.mtl
g default
v -3.609590 -5.015605 1.712526
v -3.586593 -5.223821 -0.139675
v -0.313806 -6.150861 -0.055816
v -0.684828 -5.893048 1.251489
v -5.367736 -2.664825 1.860396
v -5.547567 -2.884985 0.093080
v -6.093022 -0.089433 1.861454
v -6.405069 -0.285803 0.197261
v -4.888978 2.531975 1.741837
v -5.142973 2.767134 0.072747
v -2.366995 4.882617 1.886745
v -2.956064 4.903675 0.008033
v -0.338469 5.516268 2.088568
v -0.361635 5.957257 0.159628
v 1.845805 4.503173 2.192629
v 1.942608 5.079799 0.188230
v 3.615669 2.600265 1.997595
v 3.978182 2.884481 0.081805
v 4.637641 -0.437983 1.615287
v 4.886225 -0.509798 0.073241
v 3.725554 -3.194464 2.500831
v 3.744998 -2.821563 0.098000
v 2.165550 -4.929902 1.550748
v 2.105996 -5.421029 -0.067277
v -0.980422 -4.855499 2.899722
v -2.858496 -4.052828 3.671031
v 1.034218 -4.384718 2.899463
v 2.504774 -3.479259 3.945362
v 3.323211 -1.068158 4.096526
v 2.653574 1.764295 3.762691
v 1.561231 3.244690 3.757570
v -0.162106 3.936671 3.900314
v -1.654205 4.145665 3.855411
v -4.047505 2.836893 3.838808
v -4.645880 -0.039473 3.684632
v -4.670175 -2.498867 3.808461
v -2.206754 -2.587067 4.943808
v -2.225627 1.796183 5.056776
v 1.078607 1.431140 4.934361
v 1.090863 -2.068178 4.832387
v -0.418108 -3.035254 4.280568
v -3.076915 -1.161951 4.376411
v -0.353192 2.223390 4.916659
v 1.660284 -0.479908 4.809774
v -1.577076 -0.924204 5.094846
v -0.182871 -1.337058 5.338696
v -0.922347 0.305228 5.412604
v 0.242311 -0.018459 5.302403
v 1.797219 -4.914236 -0.825902
v -0.145430 -5.513402 -0.825902
v 3.350010 -2.426455 -0.825902
v 4.400633 -0.515169 -0.825902
v 3.570638 2.603012 -0.825902
v 2.018707 4.427499 -0.825902
v -2.596086 4.574803 -0.825902
v -0.226284 5.367068 -0.825902
v -4.738853 2.652405 -0.825902
v -6.065951 -0.046481 -0.825902
v -5.229829 -2.634063 -0.825902
v -3.540968 -4.637432 -0.825902
v -1.059290 -0.350458 -1.730060
vt 0.034269 0.000000
vt 0.615394 0.000000
vt 0.524038 1.000000
vt 0.000000 0.860079
vt 0.000000 0.000000
vt 1.000000 0.000000
vt 1.000000 1.000000
vt 0.000000 1.000000
vt 0.000000 0.000000
vt 1.000000 0.000000
vt 1.000000 1.000000
vt 0.000000 1.000000
vt 0.000000 0.000000
vt 1.000000 0.000000
vt 1.000000 1.000000
vt 0.000000 1.000000
vt 0.000000 0.000000
vt 1.000000 0.000000
vt 1.000000 1.000000
vt 0.000000 1.000000
vt 0.000000 0.000000
vt 1.000000 0.000000
vt 1.000000 1.000000
vt 0.000000 1.000000
vt 0.000000 0.000000
vt 1.000000 0.000000
vt 1.000000 1.000000
vt 0.000000 1.000000
vt 0.000000 0.000000
vt 1.000000 0.000000
vt 1.000000 1.000000
vt 0.000000 1.000000
vt 0.000000 0.000000
vt 1.000000 0.000000
vt 1.000000 1.000000
vt 0.000000 1.000000
vt 0.000000 0.000000
vt 1.000000 0.000000
vt 1.000000 1.000000
vt 0.000000 1.000000
vt 0.000000 0.000000
vt 1.000000 0.000000
vt 1.000000 1.000000
vt 0.000000 1.000000
vt 0.000000 0.000000
vt 1.000000 0.000000
vt 1.000000 1.000000
vt 0.000000 1.000000
vt 0.000000 0.000000
vt 1.000000 0.000000
vt 1.000000 1.000000
vt 0.000000 1.000000
vt 0.000000 0.000000
vt 1.000000 0.000000
vt 1.000000 1.000000
vt 0.000000 1.000000
vt 0.000000 0.000000
vt 1.000000 0.000000
vt 1.000000 1.000000
vt 0.000000 1.000000
vt 0.000000 0.000000
vt 1.000000 0.000000
vt 1.000000 1.000000
vt 0.000000 1.000000
vt 0.000000 0.000000
vt 1.000000 0.000000
vt 1.000000 1.000000
vt 0.000000 1.000000
vt 0.000000 0.000000
vt 1.000000 0.000000
vt 1.000000 1.000000
vt 0.000000 1.000000
vt 0.000000 0.000000
vt 1.000000 0.000000
vt 1.000000 1.000000
vt 0.000000 1.000000
vt 0.000000 0.000000
vt 1.000000 0.000000
vt 1.000000 1.000000
vt 0.000000 1.000000
vt 0.000000 0.000000
vt 1.000000 0.000000
vt 1.000000 1.000000
vt 0.000000 1.000000
vt 0.000000 0.000000
vt 1.000000 0.000000
vt 1.000000 1.000000
vt 0.000000 1.000000
vt 0.000000 0.000000
vt 1.000000 0.000000
vt 1.000000 1.000000
vt 0.000000 1.000000
vt 0.000000 0.000000
vt 1.000000 0.000000
vt 1.000000 1.000000
vt 0.000000 1.000000
vt 0.000000 0.000000
vt 1.000000 0.000000
vt 1.000000 1.000000
vt 0.000000 1.000000
vt 0.000000 0.000000
vt 1.000000 0.000000
vt 1.000000 1.000000
vt 0.000000 1.000000
vt 0.000000 0.000000
vt 1.000000 0.000000
vt 1.000000 1.000000
vt 0.000000 1.000000
vt 0.000000 0.000000
vt 1.000000 0.000000
vt 1.000000 1.000000
vt 0.000000 1.000000
vt 0.000000 0.000000
vt 1.000000 0.000000
vt 1.000000 1.000000
vt 0.000000 1.000000
vt 0.000000 0.000000
vt 1.000000 0.000000
vt 1.000000 1.000000
vt 0.000000 1.000000
vt 0.000000 0.000000
vt 1.000000 0.000000
vt 1.000000 1.000000
vt 0.000000 1.000000
vt 0.000000 0.000000
vt 1.000000 0.000000
vt 1.000000 1.000000
vt 0.000000 1.000000
vt 0.000000 0.000000
vt 1.000000 0.000000
vt 1.000000 1.000000
vt 0.000000 1.000000
vt 0.000000 0.000000
vt 1.000000 0.000000
vt 1.000000 1.000000
vt 0.000000 1.000000
vt 0.000000 0.000000
vt 1.000000 0.000000
vt 1.000000 1.000000
vt 0.000000 1.000000
vt 0.000000 0.000000
vt 1.000000 0.000000
vt 1.000000 1.000000
vt 0.000000 1.000000
vt 0.000000 0.000000
vt 1.000000 0.000000
vt 1.000000 1.000000
vt 0.000000 1.000000
vt 0.000000 0.000000
vt 1.000000 0.000000
vt 1.000000 1.000000
vt 0.000000 1.000000
vt 0.000000 0.000000
vt 1.000000 0.000000
vt 1.000000 1.000000
vt 0.000000 1.000000
vt 0.000000 0.000000
vt 1.000000 0.000000
vt 1.000000 1.000000
vt 0.000000 1.000000
vt 0.000000 0.000000
vt 1.000000 0.000000
vt 1.000000 1.000000
vt 0.000000 1.000000
vt 0.000000 -0.229979
vt 1.000000 0.000000
vt 1.000000 1.000000
vt 0.000000 1.000000
vt 0.000000 -0.358037
vt 1.000000 0.000000
vt 1.000000 1.000000
vt 0.000000 1.000000
vt 0.000000 -0.435986
vt 1.000000 0.000000
vt 1.000000 1.000000
vt 0.000000 1.000000
vt 0.000000 -0.360262
vt 1.000000 0.000000
vt 1.000000 1.000000
vt 0.000000 1.000000
vt 0.000000 -0.470250
vt 1.000000 0.000000
vt 1.000000 1.000000
vt 0.000000 1.000000
vt 0.000000 -0.191688
vt 1.000000 0.000000
vt 1.000000 1.000000
vt 0.000000 1.000000
vt 0.000000 -0.392122
vt 1.000000 0.000000
vt 1.000000 1.000000
vt 0.000000 1.000000
vt 0.000000 0.000000
vt 1.000000 0.000000
vt 1.000000 1.000000
vt 0.000000 1.000000
vt 0.000000 -0.408478
vt 1.000000 0.000000
vt 1.000000 1.000000
vt 0.000000 1.000000
vt 0.000000 -0.411531
vt 1.000000 0.000000
vt 1.000000 1.000000
vt 0.000000 1.000000
vt 0.000000 -0.385292
vt 1.000000 0.000000
vt 1.000000 1.000000
vt 0.000000 1.000000
vt 0.000000 -0.306654
vt 1.000000 0.000000
vt 1.000000 1.000000
vt 0.000000 1.000000
vt 1.000000 -0.459959
vt 1.000000 -0.716075
vt 1.000000 -0.871972
vt 1.000000 -0.720524
vt 1.000000 -0.940500
vt 1.000000 -0.383376
vt 1.000000 -0.784243
vt -0.871581 0.500000
vt 1.000000 -0.816955
vt 1.000000 -0.823061
vt 1.000000 -0.770584
vt 1.000000 -0.613308
vn -0.271926 -0.956334 0.107149
vn -0.271926 -0.956334 0.107149
vn -0.271926 -0.956334 0.107149
vn -0.271926 -0.956334 0.107149
vn -0.774733 -0.623115 0.107316
vn -0.774733 -0.623115 0.107316
vn -0.774733 -0.623115 0.107316
vn -0.774733 -0.623115 0.107316
vn -0.941322 -0.291393 0.170301
vn -0.941322 -0.291393 0.170301
vn -0.941322 -0.291393 0.170301
vn -0.941322 -0.291393 0.170301
vn -0.903103 0.399298 0.158007
vn -0.903103 0.399298 0.158007
vn -0.903103 0.399298 0.158007
vn -0.903103 0.399298 0.158007
vn -0.676119 0.705744 0.211634
vn -0.676119 0.705744 0.211634
vn -0.676119 0.705744 0.211634
vn -0.676119 0.705744 0.211634
vn -0.349284 0.921829 0.168022
vn -0.349284 0.921829 0.168022
vn -0.349284 0.921829 0.168022
vn -0.349284 0.921829 0.168022
vn 0.370900 0.897364 0.239105
vn 0.370900 0.897364 0.239105
vn 0.370900 0.897364 0.239105
vn 0.370900 0.897364 0.239105
vn 0.721795 0.653452 0.228063
vn 0.721795 0.653452 0.228063
vn 0.721795 0.653452 0.228063
vn 0.721795 0.653452 0.228063
vn 0.944541 0.272240 0.183650
vn 0.944541 0.272240 0.183650
vn 0.944541 0.272240 0.183650
vn 0.944541 0.272240 0.183650
vn 0.928427 -0.369877 0.034850
vn 0.928427 -0.369877 0.034850
vn 0.928427 -0.369877 0.034850
vn 0.928427 -0.369877 0.034850
vn 0.803420 -0.595337 0.009490
vn 0.803420 -0.595337 0.009490
vn 0.803420 -0.595337 0.009490
vn 0.803420 -0.595337 0.009490
vn 0.281626 -0.921913 0.266013
vn 0.281626 -0.921913 0.266013
vn 0.281626 -0.921913 0.266013
vn 0.281626 -0.921913 0.266013
vn -0.171301 -0.852248 0.494298
vn -0.171301 -0.852248 0.494297
vn -0.171301 -0.852248 0.494297
vn -0.171301 -0.852248 0.494297
vn 0.208993 -0.820136 0.532633
vn 0.208993 -0.820136 0.532633
vn 0.208993 -0.820136 0.532633
vn 0.208993 -0.820136 0.532633
vn 0.417911 -0.802057 0.426680
vn 0.417911 -0.802057 0.426680
vn 0.417911 -0.802057 0.426680
vn 0.417911 -0.802057 0.426680
vn 0.842748 -0.211896 0.494849
vn 0.842748 -0.211896 0.494849
vn 0.842748 -0.211896 0.494850
vn 0.842748 -0.211896 0.494849
vn 0.821513 0.232415 0.520672
vn 0.821513 0.232415 0.520672
vn 0.821513 0.232415 0.520672
vn 0.821513 0.232415 0.520672
vn 0.645292 0.514191 0.564983
vn 0.645292 0.514191 0.564983
vn 0.645292 0.514191 0.564983
vn 0.645292 0.514191 0.564983
vn 0.320309 0.720106 0.615508
vn 0.320309 0.720106 0.615508
vn 0.320309 0.720106 0.615508
vn 0.320309 0.720106 0.615508
vn -0.137984 0.829706 0.540878
vn -0.137984 0.829706 0.540878
vn -0.137984 0.829706 0.540878
vn -0.137984 0.829706 0.540878
vn -0.575835 0.760173 0.300917
vn -0.575835 0.760173 0.300917
vn -0.575835 0.760173 0.300917
vn -0.575835 0.760173 0.300917
vn -0.841371 0.272907 0.466494
vn -0.841371 0.272907 0.466494
vn -0.841371 0.272907 0.466494
vn -0.841371 0.272907 0.466494
vn -0.861527 -0.107852 0.496124
vn -0.861527 -0.107852 0.496124
vn -0.861527 -0.107852 0.496124
vn -0.861527 -0.107852 0.496124
vn -0.652955 -0.627897 0.423552
vn -0.652955 -0.627897 0.423552
vn -0.652955 -0.627897 0.423552
vn -0.652955 -0.627897 0.423552
vn -0.187640 -0.595113 0.781430
vn -0.187640 -0.595113 0.781430
vn -0.187640 -0.595113 0.781430
vn -0.187640 -0.595113 0.781430
vn -0.424744 0.268338 0.864631
vn -0.424743 0.268338 0.864631
vn -0.424744 0.268338 0.864631
vn -0.424743 0.268338 0.864631
vn 0.373973 0.432752 0.820287
vn 0.373973 0.432752 0.820287
vn 0.373973 0.432752 0.820287
vn 0.373973 0.432752 0.820287
vn 0.141711 -0.421149 0.895852
vn 0.141711 -0.421149 0.895852
vn 0.141711 -0.421149 0.895852
vn 0.141711 -0.421149 0.895852
vn 0.137723 -0.625273 0.768157
vn 0.137723 -0.625273 0.768157
vn 0.137723 -0.625273 0.768157
vn 0.137723 -0.625273 0.768157
vn -0.418588 -0.025606 0.907815
vn -0.418588 -0.025606 0.907815
vn -0.418588 -0.025606 0.907815
vn -0.418588 -0.025606 0.907815
vn 0.150109 0.491980 0.857568
vn 0.150109 0.491980 0.857568
vn 0.150109 0.491980 0.857568
vn 0.150109 0.491980 0.857568
vn 0.417329 0.082432 0.905009
vn 0.417329 0.082432 0.905009
vn 0.417329 0.082432 0.905009
vn 0.417329 0.082432 0.905009
vn -0.424666 0.098999 0.899921
vn -0.424666 0.098999 0.899921
vn -0.424666 0.098999 0.899921
vn -0.424666 0.098999 0.899921
vn 0.093226 -0.599188 0.795162
vn 0.093226 -0.599188 0.795162
vn 0.093226 -0.599188 0.795162
vn 0.093226 -0.599188 0.795162
vn -0.015717 0.373139 0.927642
vn -0.015717 0.373139 0.927642
vn -0.015717 0.373139 0.927642
vn -0.015717 0.373139 0.927642
vn 0.486943 0.091586 0.868619
vn 0.486943 0.091586 0.868619
vn 0.486943 0.091586 0.868619
vn 0.486943 0.091586 0.868619
vn 0.120302 0.199294 0.972527
vn 0.120302 0.199294 0.972527
vn 0.120302 0.199294 0.972527
vn 0.120302 0.199294 0.972527
vn -0.387532 -0.079537 0.918419
vn -0.387532 -0.079537 0.918419
vn -0.387532 -0.079537 0.918419
vn -0.387532 -0.079537 0.918419
vn 0.030205 -0.345236 0.938030
vn 0.030205 -0.345236 0.938030
vn 0.030205 -0.345236 0.938030
vn 0.030205 -0.345236 0.938030
vn 0.312222 -0.087660 0.945956
vn 0.312222 -0.087660 0.945956
vn 0.312222 -0.087660 0.945956
vn 0.312222 -0.087660 0.945956
vn -0.074451 -0.078263 0.994149
vn -0.074451 -0.078264 0.994149
vn -0.074451 -0.078263 0.994149
vn -0.074451 -0.078263 0.994149
vn 0.121889 -0.400609 -0.908106
vn 0.291291 -0.323819 -0.900162
vn 0.232484 -0.768274 -0.596411
vn 0.232484 -0.768274 -0.596411
vn 0.369500 -0.210957 -0.904968
vn 0.722804 -0.436078 -0.536088
vn 0.722804 -0.436078 -0.536088
vn 0.472189 -0.249491 -0.845454
vn 0.784050 -0.409672 -0.466298
vn 0.784050 -0.409672 -0.466298
vn 0.445095 0.118934 -0.887550
vn 0.403086 0.204222 -0.892085
vn 0.857575 0.229474 -0.460333
vn 0.857575 0.229474 -0.460333
vn 0.273661 0.358173 -0.892649
vn 0.673782 0.612274 -0.413689
vn 0.673782 0.612274 -0.413689
vn -0.159075 0.456062 -0.875615
vn -0.227609 0.389856 -0.892304
vn -0.289905 0.820178 -0.493217
vn -0.289905 0.820178 -0.493217
vn 0.176091 0.432929 -0.884061
vn 0.329379 0.817211 -0.472944
vn 0.329379 0.817211 -0.472944
vn -0.392413 0.283733 -0.874933
vn -0.617846 0.652051 -0.439427
vn -0.617846 0.652051 -0.439427
vn -0.520917 0.062101 -0.851345
vn -0.869098 0.384490 -0.311186
vn -0.869098 0.384490 -0.311186
vn -0.483372 -0.154430 -0.861686
vn -0.885145 -0.281584 -0.370445
vn -0.885145 -0.281584 -0.370445
vn -0.354708 -0.289870 -0.888908
vn -0.410756 -0.334569 -0.848141
vn -0.695434 -0.560438 -0.449758
vn -0.695434 -0.560438 -0.449758
vn -0.094804 -0.366256 -0.925672
vn -0.101758 -0.393032 -0.913877
vn -0.191238 -0.737412 -0.647805
vn -0.191238 -0.737412 -0.647805
vn 0.131272 -0.111281 -0.985081
vn 0.126591 0.088167 -0.988029
vn -0.139644 0.080907 -0.986891
vn -0.145614 -0.122754 -0.981697
vn -0.046512 -0.180295 -0.982512
s off
g polySurface1
usemtl lambert2SG
f 1/1/1 2/2/2 3/3/3 4/4/4
f 6/5/5 2/6/6 1/7/7 5/8/8
f 8/9/9 6/10/10 5/11/11 7/12/12
f 10/13/13 8/14/14 7/15/15 9/16/16
f 9/17/17 11/18/18 12/19/19 10/20/20
f 11/21/21 13/22/22 14/23/23 12/24/24
f 13/25/25 15/26/26 16/27/27 14/28/28
f 15/29/29 17/30/30 18/31/31 16/32/32
f 17/33/33 19/34/34 20/35/35 18/36/36
f 19/37/37 21/38/38 22/39/39 20/40/40
f 21/41/41 23/42/42 24/43/43 22/44/44
f 3/45/45 24/46/46 23/47/47 4/48/48
f 1/49/49 4/50/50 25/51/51 26/52/52
f 27/53/53 25/54/54 4/55/55 23/56/56
f 21/57/57 28/58/58 27/59/59 23/60/60
f 29/61/61 28/62/62 21/63/63 19/64/64
f 30/65/65 29/66/66 19/67/67 17/68/68
f 15/69/69 31/70/70 30/71/71 17/72/72
f 15/73/73 13/74/74 32/75/75 31/76/76
f 11/77/77 33/78/78 32/79/79 13/80/80
f 34/81/81 33/82/82 11/83/83 9/84/84
f 7/85/85 35/86/86 34/87/87 9/88/88
f 7/89/89 5/90/90 36/91/91 35/92/92
f 26/93/93 36/94/94 5/95/95 1/96/96
f 36/97/97 26/98/98 25/99/99 37/100/100
f 33/101/101 34/102/102 35/103/103 38/104/104
f 31/105/105 32/106/106 39/107/107 30/108/108
f 28/109/109 29/110/110 40/111/111 27/112/112
f 37/113/113 25/114/114 27/115/115 41/116/116
f 38/117/117 35/118/118 36/119/119 42/120/120
f 39/121/121 32/122/122 33/123/123 43/124/124
f 30/125/125 44/126/126 40/127/127 29/128/128
f 45/129/129 42/130/130 36/131/131 37/132/132
f 27/133/133 40/134/134 46/135/135 41/136/136
f 38/137/137 47/138/138 43/139/139 33/140/140
f 39/141/141 48/142/142 44/143/143 30/144/144
f 47/145/145 48/146/146 39/147/147 43/148/148
f 47/149/149 38/150/150 42/151/151 45/152/152
f 45/153/153 37/154/154 41/155/155 46/156/156
f 46/157/157 40/158/158 44/159/159 48/160/160
f 45/161/161 46/162/162 48/163/163 47/164/164
s 1
f 50/165/165 49/166/166 24/167/167 3/168/168
f 49/169/166 51/170/169 22/171/170 24/172/171
f 51/173/169 52/174/172 20/175/173 22/176/174
s 4
f 52/177/175 53/178/176 18/179/177 20/180/178
f 53/181/176 54/182/179 16/183/180 18/184/181
s 6
f 56/185/182 55/186/183 12/187/184 14/188/185
s 4
f 54/189/179 56/190/186 14/191/187 16/192/188
s 6
f 57/193/189 10/194/190 12/195/191 55/196/183
f 57/197/189 58/198/192 8/199/193 10/200/194
f 58/201/192 59/202/195 6/203/196 8/204/197
s 11
f 59/205/198 60/206/199 2/207/200 6/208/201
s 12
f 60/209/202 50/210/203 3/211/204 2/212/205
s 1
f 49/166/166 50/213/165 61/165/206
f 51/170/169 49/214/166 61/169/206
f 52/174/172 51/215/169 61/173/206
s 4
f 53/178/176 52/216/175 61/177/207
f 54/182/179 53/217/176 61/181/207
s 6
f 55/186/183 56/218/182 61/185/208
s 4
f 56/190/186 54/219/179 61/189/207
s 6
f 57/196/189 55/193/183 61/220/208
f 58/198/192 57/221/189 61/197/208
f 59/202/195 58/222/192 61/201/208
s 11
f 60/206/199 59/223/198 61/205/209
s 12
f 50/210/203 60/224/202 61/209/210
